<?xml version="1.0" encoding="UTF-8"?>
<!DOCTYPE svg PUBLIC "-//W3C//DTD SVG 1.1//EN" "http://www.w3.org/Graphics/SVG/1.1/DTD/svg11.dtd">
<!-- Creator: CorelDRAW -->
<svg xmlns="http://www.w3.org/2000/svg" xml:space="preserve" width="1080px" height="1080px" version="1.1" style="shape-rendering:geometricPrecision; text-rendering:geometricPrecision; image-rendering:optimizeQuality; fill-rule:evenodd; clip-rule:evenodd"
viewBox="0 0 1080 1080"
 xmlns:xlink="http://www.w3.org/1999/xlink"
 xmlns:xodm="http://www.corel.com/coreldraw/odm/2003">
 <defs>
  <style type="text/css">
   <![CDATA[
    .fil0 {fill:#3594FA}
   ]]>
  </style>
 </defs>
 <g id="Capa_x0020_1">
  <metadata id="CorelCorpID_0Corel-Layer"/>
  <g id="_2418267610752">
   <path class="fil0" d="M530.51 1071.39c43.59,0.12 82.08,-2.38 120.29,-11.41 17.72,-4.19 35.27,-8.09 52.33,-13.94 16.09,-5.51 31.81,-11.06 46.85,-17.51 50.89,-21.82 99.19,-53.1 141.14,-89.35 2.87,-2.48 5.08,-5.36 8.36,-8 3.13,-2.52 4.86,-3.93 8.07,-7.16 17,-17.06 32.25,-32.87 47.07,-51.57 2.82,-3.57 4.59,-5.77 7.39,-9.25l7.04 -9.35c8.5,-13.15 18.59,-25.41 26.15,-39.65 7.47,-14.07 14.99,-26.17 22.81,-41.85 22.22,-44.51 37.85,-94.44 46.23,-144.04 5.09,-30.12 4.41,-39.43 7.14,-65.47l-324.94 1.27c-3.11,14.74 -4.39,25.37 -8.85,39.4 -17.19,54.09 -62.7,106.37 -113.77,126.62 -57,22.59 -114.41,25.35 -170.97,-1.59 -23.48,-11.19 -39.91,-22.71 -56.26,-38.62l-12 -12.15c-3.81,-4.05 -7.89,-9.19 -10.81,-13.3 -3.72,-5.22 -6.38,-8.71 -9.9,-14.23l-19.48 -39.91c-1.22,-3.09 -2.12,-5.44 -2.98,-8.4 -2.98,-10.29 -8.01,-28.53 -7.75,-39.11l-325.05 0c0.18,37.44 8.68,80.28 17.31,113.82 8.17,31.73 21.19,65.92 34.38,93.63 16.88,35.49 54.38,94.14 81.03,121.59 25.93,26.72 47.89,50.68 78.84,73.03 55.37,40 114.58,71.37 181.43,88.52l15.43 3.74c36,8.96 73.38,14.13 113.47,14.24z"/>
   <circle class="fil0" cx="540" cy="540" r="155.71"/>
   <path class="fil0" d="M8.62 516.74l324.5 -0.07c2.15,-16.96 7.31,-39.55 14.57,-56.23 21.04,-48.34 58.01,-88.69 106.73,-110.03l25.55 -9.75c3,-1 6.39,-1.88 9.81,-2.79 7.05,-1.87 13.02,-2.55 20.41,-3.69 19.06,-2.93 27.62,-2.81 47.06,-1.49 17.47,1.19 33.83,4.89 50.37,10.61l4.72 1.6c36.58,13.03 67.4,37.7 91.31,67.18 3.93,4.85 6.09,8.1 9.95,13.88 12.42,18.57 24.71,45.99 29.05,68.32 5.35,27.56 -6.82,22.38 43.64,22.31l285.09 0.13 -2.36 -29.3c-2.01,-26.64 -8.23,-54.81 -14.43,-80.74l-3.13 -12.13c-13.29,-45.79 -37.79,-103.11 -64.3,-142.17 -11.81,-17.4 -33.02,-48.31 -47.3,-62.59 -3.93,-3.93 -4.68,-5.3 -7.67,-9.05 -5.53,-6.93 -39.43,-39.52 -48.47,-46.35 -12.85,-9.72 -20,-17.39 -35.54,-27.88 -25.41,-17.15 -49.98,-32.58 -79.62,-47.05 -52.66,-25.73 -137.77,-50.3 -203.86,-50.83 -80.8,-0.39 -120.05,2.33 -199.28,28.85 -61.79,20.68 -134.25,63.09 -182.21,107.76l-47.44 48.77c-5.03,6.01 -8.96,11.25 -14.17,17.51 -13.57,16.32 -27.81,39.35 -39.54,57.86 -40.99,64.71 -71.7,166.27 -73.44,247.36z"/>
  </g>
 </g>
</svg>
