<?xml version="1.0" encoding="UTF-8"?>
<!DOCTYPE svg PUBLIC "-//W3C//DTD SVG 1.1//EN" "http://www.w3.org/Graphics/SVG/1.1/DTD/svg11.dtd">
<!-- Creator: CorelDRAW -->
<svg xmlns="http://www.w3.org/2000/svg" xml:space="preserve" width="1080px" height="1080px" version="1.1" style="shape-rendering:geometricPrecision; text-rendering:geometricPrecision; image-rendering:optimizeQuality; fill-rule:evenodd; clip-rule:evenodd"
viewBox="0 0 1080 1080"
 xmlns:xlink="http://www.w3.org/1999/xlink"
 xmlns:xodm="http://www.corel.com/coreldraw/odm/2003">
 <defs>
  <style type="text/css">
   <![CDATA[
    .fil0 {fill:#90C12C}
    .fil1 {fill:#FDFDFE}
   ]]>
  </style>
 </defs>
 <g id="Capa_x0020_1">
  <metadata id="CorelCorpID_0Corel-Layer"/>
  <g id="Bicho">
   <path class="fil0" d="M693.77 858.92c-125.73,-49.48 -180.54,-381 -111.43,-409.54 1.55,-0.64 4.46,-2.23 6.39,-2.94 61.71,-22.83 95.18,0.61 158.98,-106.57 108.2,64.92 183.43,302.11 1.73,477.36 -19.13,18.45 -34.2,22.82 -55.67,41.69zm-363.68 -519.05c18.99,30.83 33.68,55.56 61.92,77.74 28.7,22.53 54.89,20.87 80.67,26.35l35.26 12.5 16.33 108.8c0,109.63 -67.5,264.35 -139.69,293.66 -46.13,-44.65 -65.02,-37.37 -105.41,-93.22 -28.05,-38.78 -51.61,-83.46 -60.28,-142.35 -17.08,-115.94 44.31,-243.34 111.2,-283.48zm342.06 -151.24c26.47,34.1 -6.29,39.67 -36.83,85.31l62.26 28c-45.51,122.27 -269.75,119.53 -316.65,2.85l61.9 -30.02c-14.13,-21.43 -65.32,-61.21 -38.6,-87.87 29.4,-29.35 64.89,36.12 80.39,54.47 27.4,32.44 81.15,32.43 108.57,0 41.7,-49.33 45.62,-78.51 78.96,-52.74zm-672.15 309.41c0,182.31 23.45,290.7 156.57,423.53 211.7,211.24 552.97,211.24 764.66,0 211.69,-211.24 211.69,-551.79 0,-763.03 -162.79,-162.44 -418.38,-204.19 -618.3,-106.02 -57.9,28.43 -100.71,61.85 -147.43,104.95 -70.04,64.62 -155.5,210.19 -155.5,340.57z"/>
   <path class="fil1" d="M693.77 858.92c21.47,-18.87 36.54,-23.24 55.67,-41.69 181.7,-175.25 106.47,-412.44 -1.73,-477.36 -63.8,107.18 -97.27,83.74 -158.98,106.57 -1.93,0.71 -4.84,2.3 -6.39,2.94 -69.11,28.54 -14.3,360.06 111.43,409.54z"/>
   <path class="fil1" d="M330.09 339.87c-66.89,40.14 -128.28,167.54 -111.2,283.48 8.67,58.89 32.23,103.57 60.28,142.35 40.39,55.85 59.28,48.57 105.41,93.22 72.19,-29.31 139.69,-184.03 139.69,-293.66l-16.33 -108.8 -35.26 -12.5c-25.78,-5.48 -51.97,-3.82 -80.67,-26.35 -28.24,-22.18 -42.93,-46.91 -61.92,-77.74z"/>
   <path class="fil1" d="M697.58 301.94l-62.26 -28c30.54,-45.64 63.3,-51.21 36.83,-85.31 -33.34,-25.77 -37.26,3.41 -78.96,52.74 -27.42,32.43 -81.17,32.44 -108.57,0 -15.5,-18.35 -50.99,-83.82 -80.39,-54.47 -26.72,26.66 24.47,66.44 38.6,87.87l-61.9 30.02c46.9,116.68 271.14,119.42 316.65,-2.85z"/>
  </g>
 </g>
</svg>
