<?xml version="1.0" encoding="UTF-8"?>
<!DOCTYPE svg PUBLIC "-//W3C//DTD SVG 1.1//EN" "http://www.w3.org/Graphics/SVG/1.1/DTD/svg11.dtd">
<!-- Creator: CorelDRAW -->
<svg xmlns="http://www.w3.org/2000/svg" xml:space="preserve" width="1080px" height="1080px" version="1.1" style="shape-rendering:geometricPrecision; text-rendering:geometricPrecision; image-rendering:optimizeQuality; fill-rule:evenodd; clip-rule:evenodd"
viewBox="0 0 1080 1080"
 xmlns:xlink="http://www.w3.org/1999/xlink"
 xmlns:xodm="http://www.corel.com/coreldraw/odm/2003">
 <defs>
  <style type="text/css">
   <![CDATA[
    .fil0 {fill:#096DC4}
    .fil1 {fill:#FDFDFE}
   ]]>
  </style>
 </defs>
 <g id="Capa_x0020_1">
  <metadata id="CorelCorpID_0Corel-Layer"/>
  <g id="Dragón">
   <path class="fil0" d="M235.93 615.9c54.56,-38.78 143.36,-54.42 218.88,-56.77 -25.6,109.81 -84.65,143.35 50.52,299.37 -125.62,-5.37 -260.54,-124.45 -269.4,-242.6zm-10.31 -84.38c10.37,-118.66 66.68,-196.42 130.73,-240.46 99.06,-68.11 95.28,-16.54 179.71,-139.51l24.18 -24.99 -0.18 107.12c160.09,9.78 296.79,142.07 296.79,306.64 0,177.17 -161.47,351.63 -280.06,290.15 -44.61,-23.14 -78.77,-55.3 -97.44,-107.6 238.59,19.5 259.63,-259.3 93.23,-317.35l-29.05 30.39c-14.76,16.2 -12.67,13.94 -32.56,26.29 -61.97,38.51 -203.28,54.54 -285.35,69.32zm-225.62 -33.19c0,182.21 23.45,290.55 156.57,423.31 211.69,211.14 552.97,211.14 764.66,0 211.69,-211.13 211.69,-551.51 0,-762.64 -212.77,-212.21 -537.6,-211.43 -765.74,-1.07 -70.03,64.58 -155.49,210.08 -155.49,340.4z"/>
   <path class="fil1" d="M320.05 449.95c4.9,-64.69 26.41,-88.48 90.32,-92.17 4.18,60.74 -30.53,89.26 -90.32,92.17zm-94.43 81.57c82.07,-14.78 223.38,-30.81 285.35,-69.32 19.89,-12.35 17.8,-10.09 32.56,-26.29l29.05 -30.39c166.4,58.05 145.36,336.85 -93.23,317.35 18.67,52.3 52.83,84.46 97.44,107.6 118.59,61.48 280.06,-112.98 280.06,-290.15 0,-164.57 -136.7,-296.86 -296.79,-306.64l0.18 -107.12 -24.18 24.99c-84.43,122.97 -80.65,71.4 -179.71,139.51 -64.05,44.04 -120.36,121.8 -130.73,240.46z"/>
   <path class="fil1" d="M235.93 615.9c8.86,118.15 143.78,237.23 269.4,242.6 -135.17,-156.02 -76.12,-189.56 -50.52,-299.37 -75.52,2.35 -164.32,17.99 -218.88,56.77z"/>
   <path class="fil0" d="M320.05 449.95c59.79,-2.91 94.5,-31.43 90.32,-92.17 -63.91,3.69 -85.42,27.48 -90.32,92.17z"/>
  </g>
 </g>
</svg>
