<?xml version="1.0" encoding="UTF-8"?>
<!DOCTYPE svg PUBLIC "-//W3C//DTD SVG 1.1//EN" "http://www.w3.org/Graphics/SVG/1.1/DTD/svg11.dtd">
<!-- Creator: CorelDRAW -->
<svg xmlns="http://www.w3.org/2000/svg" xml:space="preserve" width="1080px" height="1080px" version="1.1" style="shape-rendering:geometricPrecision; text-rendering:geometricPrecision; image-rendering:optimizeQuality; fill-rule:evenodd; clip-rule:evenodd"
viewBox="0 0 1080 1080"
 xmlns:xlink="http://www.w3.org/1999/xlink"
 xmlns:xodm="http://www.corel.com/coreldraw/odm/2003">
 <defs>
  <style type="text/css">
   <![CDATA[
    .fil0 {fill:#EC8FE6}
    .fil1 {fill:#FDFDFE}
   ]]>
  </style>
 </defs>
 <g id="Capa_x0020_1">
  <metadata id="CorelCorpID_0Corel-Layer"/>
  <g id="Hada">
   <path class="fil0" d="M324.37 327.16l103.94 25.59 107.98 -204.49 115.02 199.35 101.31 -21.24 -25.66 103.66 205.04 107.69 -199.88 114.72 21.3 101.04 -103.93 -25.59 -107.98 204.5 -115.02 -199.36 -101.31 21.25 25.65 -103.66 -205.03 -107.7 199.87 -114.71 -21.3 -101.05zm-324.37 171.17c0,182.22 23.45,290.55 156.57,423.31 211.69,211.14 552.96,211.14 764.66,0 211.69,-211.13 211.69,-551.5 0,-762.64 -212.76,-212.21 -537.61,-211.43 -765.73,-1.07 -70.04,64.58 -155.5,210.08 -155.5,340.4z"/>
   <path class="fil1" d="M389.65 540.32c24.75,-22.93 70.73,-37.16 91.36,-57.73 20.63,-20.58 34.9,-66.45 57.89,-91.12 22.99,24.67 37.26,70.54 57.89,91.12 20.63,20.57 66.61,34.8 91.35,57.73 -24.74,22.94 -70.72,37.16 -91.35,57.74 -20.63,20.58 -34.9,66.44 -57.89,91.11 -22.99,-24.67 -37.26,-70.53 -57.89,-91.11 -20.63,-20.58 -66.61,-34.8 -91.36,-57.74zm-43.98 -112.11l-199.87 114.71 205.03 107.7 -25.65 103.66 101.31 -21.25 115.02 199.36 107.98 -204.5 103.93 25.59 -21.3 -101.04 199.88 -114.72 -205.04 -107.69 25.66 -103.66 -101.31 21.24 -115.02 -199.35 -107.98 204.49 -103.94 -25.59 21.3 101.05z"/>
   <path class="fil0" d="M389.65 540.32c24.75,22.94 70.73,37.16 91.36,57.74 20.63,20.58 34.9,66.44 57.89,91.11 22.99,-24.67 37.26,-70.53 57.89,-91.11 20.63,-20.58 66.61,-34.8 91.35,-57.74 -24.74,-22.93 -70.72,-37.16 -91.35,-57.73 -20.63,-20.58 -34.9,-66.45 -57.89,-91.12 -22.99,24.67 -37.26,70.54 -57.89,91.12 -20.63,20.57 -66.61,34.8 -91.36,57.73z"/>
  </g>
 </g>
</svg>
