<?xml version="1.0" encoding="UTF-8"?>
<!DOCTYPE svg PUBLIC "-//W3C//DTD SVG 1.1//EN" "http://www.w3.org/Graphics/SVG/1.1/DTD/svg11.dtd">
<!-- Creator: CorelDRAW -->
<svg xmlns="http://www.w3.org/2000/svg" xml:space="preserve" width="1080px" height="1080px" version="1.1" style="shape-rendering:geometricPrecision; text-rendering:geometricPrecision; image-rendering:optimizeQuality; fill-rule:evenodd; clip-rule:evenodd"
viewBox="0 0 1080 1080"
 xmlns:xlink="http://www.w3.org/1999/xlink"
 xmlns:xodm="http://www.corel.com/coreldraw/odm/2003">
 <defs>
  <style type="text/css">
   <![CDATA[
    .fil0 {fill:#CE4069}
    .fil1 {fill:#FDFDFE}
   ]]>
  </style>
 </defs>
 <g id="Capa_x0020_1">
  <metadata id="CorelCorpID_0Corel-Layer"/>
  <g id="Lucha">
   <path class="fil0" d="M378.91 284.1c122.75,0 25.58,136.44 75.78,195.22 31.4,-25.23 8.96,-140.47 23.05,-185.8 25.29,-9.36 53.76,-11.11 86.01,-3.67 37.36,64.35 2.64,129.22 22.61,192.61 23.36,-10.89 21.63,20.63 19.73,-93.37 -0.8,-48.5 -0.67,-68.09 17.42,-99.24 32.67,-7.53 60.98,-5.6 86.01,4.19 14.54,45.38 -8.55,159.9 23.04,185.28 50.31,-58.9 -47.25,-195.22 75.78,-195.22 27.38,0 46.4,18.97 46.4,46.27l0 436.7c0,27.31 -19.02,46.27 -46.4,46.27 -570.15,0 -475.82,56.85 -475.82,-264.62 0,-65.93 -30.87,-264.62 46.39,-264.62zm-81.98 162.18c12.09,43.02 12.09,313.03 0,356.05 -55.93,15.19 -61.51,-10.04 -80.88,-57.61 -48.43,-118.9 -48.43,-121.93 0,-240.83 19.37,-47.57 24.95,-72.79 80.88,-57.61zm-296.93 52.05c0,182.22 23.45,290.55 156.56,423.32 211.7,211.13 552.97,211.13 764.67,0 211.69,-211.14 211.69,-551.51 0,-762.65 -212.77,-212.21 -537.61,-211.43 -765.73,-1.07 -70.04,64.58 -155.5,210.08 -155.5,340.4z"/>
   <path class="fil1" d="M379.33 284.1c-77.05,0 -46.26,198.69 -46.26,264.62 0,321.47 -94.09,264.62 474.57,264.62 27.3,0 46.27,-18.97 46.27,-46.27l0 -436.71c0,-27.29 -18.97,-46.26 -46.27,-46.26 -122.71,0 -25.41,136.31 -75.59,195.22 -31.51,-25.38 -8.48,-139.91 -22.98,-185.28 -24.96,-9.79 -53.2,-11.72 -85.78,-4.19 -18.04,31.15 -18.17,50.74 -17.37,99.24 1.89,114 3.62,82.48 -19.69,93.37 -19.91,-63.39 14.72,-128.27 -22.54,-192.61 -32.17,-7.44 -60.57,-5.69 -85.79,3.67 -14.05,45.33 8.33,160.57 -22.98,185.8 -50.08,-58.78 46.84,-195.22 -75.59,-195.22z"/>
   <path class="fil1" d="M297.57 446.27c-55.78,-15.18 -61.35,10.05 -80.67,57.62 -48.3,118.9 -48.3,121.93 0,240.83 19.32,47.57 24.89,72.79 80.67,57.61 12.05,-43.03 12.05,-313.03 0,-356.06z"/>
  </g>
 </g>
</svg>
