<?xml version="1.0" encoding="UTF-8"?>
<!DOCTYPE svg PUBLIC "-//W3C//DTD SVG 1.1//EN" "http://www.w3.org/Graphics/SVG/1.1/DTD/svg11.dtd">
<!-- Creator: CorelDRAW -->
<svg xmlns="http://www.w3.org/2000/svg" xml:space="preserve" width="1080px" height="1080px" version="1.1" style="shape-rendering:geometricPrecision; text-rendering:geometricPrecision; image-rendering:optimizeQuality; fill-rule:evenodd; clip-rule:evenodd"
viewBox="0 0 1080 1080"
 xmlns:xlink="http://www.w3.org/1999/xlink"
 xmlns:xodm="http://www.corel.com/coreldraw/odm/2003">
 <defs>
  <style type="text/css">
   <![CDATA[
    .fil1 {fill:#FDFDFE}
    .fil0 {fill:#FE9C54}
   ]]>
  </style>
 </defs>
 <g id="Capa_x0020_1">
  <metadata id="CorelCorpID_0Corel-Layer"/>
  <g id="Fuego">
   <path class="fil0" d="M334.6 578.83c-22.78,-133.97 -14.74,-156.01 65.98,-235.6 72.88,-71.87 151.41,-45.78 140.87,-197.13 28.12,6.75 56.62,36.68 71,59.98 17.81,28.85 23.65,61.35 23.34,98.71 -45.13,26.39 -67.81,15.77 -87.47,68.58 -17.63,47.37 1.61,87.52 31.89,108.84 84.66,59.57 164.9,-22.37 143.32,-118.72 66.56,29.82 141.13,162.06 95.46,279.45 -27.6,70.94 -126.72,165.04 -232.78,152.38 44.53,-8.44 111.73,-110.88 43.39,-186.06 -57.65,-63.42 -162.17,-38.98 -192.49,30.79 -37.74,86.88 42.16,158.66 95.22,183.71 94.93,44.81 153.03,3.32 228.74,-27.01 -37.12,85.22 -256.29,175.05 -408.94,55.77 -42.76,-33.4 -92.77,-99.43 -105.93,-179.41 -7.31,-44.46 -6.18,-91.95 4.31,-135.81 7.8,-32.63 22.32,-67.21 44.82,-92.41 -5.87,76.85 -2.18,90.52 39.27,133.94zm-334.6 -80.79c0,182.31 23.45,290.7 156.57,423.53 211.69,211.24 552.97,211.24 764.66,0 211.69,-211.24 211.69,-551.79 0,-763.03 -162.79,-162.44 -418.39,-204.19 -618.31,-106.02 -157.37,77.27 -302.92,256.18 -302.92,445.52z"/>
   <path class="fil1" d="M334.6 578.83c-41.45,-43.42 -45.14,-57.09 -39.27,-133.94 -22.5,25.2 -37.02,59.78 -44.82,92.41 -10.49,43.86 -11.62,91.35 -4.31,135.81 13.16,79.98 63.17,146.01 105.93,179.41 152.65,119.28 371.82,29.45 408.94,-55.77 -75.71,30.33 -133.81,71.82 -228.74,27.01 -53.06,-25.05 -132.96,-96.83 -95.22,-183.71 30.32,-69.77 134.84,-94.21 192.49,-30.79 68.34,75.18 1.14,177.62 -43.39,186.06 106.06,12.66 205.18,-81.44 232.78,-152.38 45.67,-117.39 -28.9,-249.63 -95.46,-279.45 21.58,96.35 -58.66,178.29 -143.32,118.72 -30.28,-21.32 -49.52,-61.47 -31.89,-108.84 19.66,-52.81 42.34,-42.19 87.47,-68.58 0.31,-37.36 -5.53,-69.86 -23.34,-98.71 -14.38,-23.3 -42.88,-53.23 -71,-59.98 10.54,151.35 -67.99,125.26 -140.87,197.13 -80.72,79.59 -88.76,101.63 -65.98,235.6z"/>
  </g>
 </g>
</svg>
