<?xml version="1.0" encoding="UTF-8"?>
<!DOCTYPE svg PUBLIC "-//W3C//DTD SVG 1.1//EN" "http://www.w3.org/Graphics/SVG/1.1/DTD/svg11.dtd">
<!-- Creator: CorelDRAW -->
<svg xmlns="http://www.w3.org/2000/svg" xml:space="preserve" width="1080px" height="1080px" version="1.1" style="shape-rendering:geometricPrecision; text-rendering:geometricPrecision; image-rendering:optimizeQuality; fill-rule:evenodd; clip-rule:evenodd"
viewBox="0 0 1080 1080"
 xmlns:xlink="http://www.w3.org/1999/xlink"
 xmlns:xodm="http://www.corel.com/coreldraw/odm/2003">
 <defs>
  <style type="text/css">
   <![CDATA[
    .fil0 {fill:#92AADE}
    .fil1 {fill:#FDFDFE}
   ]]>
  </style>
 </defs>
 <g id="Capa_x0020_1">
  <metadata id="CorelCorpID_0Corel-Layer"/>
  <g id="Volador">
   <path class="fil0" d="M566.27 532.65c30.81,11.32 131.35,9.66 173.27,5.53 71.9,-7.07 95.99,-39.55 134.1,-46.58 -0.06,83.61 -102.48,138.74 -182.84,142.7 -43.74,2.15 -73.54,-10.98 -90.85,16.24 40.75,22.04 172.96,2.71 224.75,-8.43 -39.01,78 -78.07,79.06 -177.36,96.37 -0.7,1.59 -0.71,2.75 -0.67,5.16 0.75,46.05 4.55,-8.86 8.56,39.59 -50.53,23.39 -175.97,131.09 -330.27,21.27 -165.2,-117.58 -186.38,-471.42 222.36,-470.81 181.16,0.27 247.9,14.18 358.41,-84.68 34.93,88.77 -64.31,233.84 -193.58,261.54 -52.39,11.23 -124.76,-6.01 -145.88,22.1zm-566.27 -34.7c0,182.7 23.45,291.32 156.57,424.43 211.69,211.7 552.96,211.7 764.66,0 211.69,-211.68 211.69,-552.96 0,-764.65 -162.79,-162.79 -418.39,-204.63 -618.3,-106.25 -157.37,77.44 -302.93,256.73 -302.93,446.47z"/>
   <path class="fil1" d="M566.21 532.67c21.07,-28.06 93.29,-10.85 145.57,-22.06 129,-27.64 228.02,-172.4 193.17,-260.98 -110.27,98.65 -176.87,84.77 -357.65,84.5 -407.87,-0.61 -386.73,352.47 -221.88,469.81 153.97,109.58 279.14,2.12 329.57,-21.23 -4.01,-48.34 -7.8,6.44 -8.55,-39.51 -0.04,-2.4 -0.03,-3.56 0.67,-5.14 99.07,-17.28 138.05,-18.34 176.98,-96.17 -51.68,11.12 -183.6,30.4 -224.27,8.41 17.28,-27.16 47.01,-14.06 90.66,-16.2 80.18,-3.95 182.39,-58.96 182.45,-142.39 -38.03,7.01 -62.07,39.42 -133.82,46.48 -41.82,4.11 -142.16,5.77 -172.9,-5.52z"/>
  </g>
 </g>
</svg>
