<?xml version="1.0" encoding="UTF-8"?>
<!DOCTYPE svg PUBLIC "-//W3C//DTD SVG 1.1//EN" "http://www.w3.org/Graphics/SVG/1.1/DTD/svg11.dtd">
<!-- Creator: CorelDRAW -->
<svg xmlns="http://www.w3.org/2000/svg" xml:space="preserve" width="1080px" height="1080px" version="1.1" style="shape-rendering:geometricPrecision; text-rendering:geometricPrecision; image-rendering:optimizeQuality; fill-rule:evenodd; clip-rule:evenodd"
viewBox="0 0 1080 1080"
 xmlns:xlink="http://www.w3.org/1999/xlink"
 xmlns:xodm="http://www.corel.com/coreldraw/odm/2003">
 <defs>
  <style type="text/css">
   <![CDATA[
    .fil0 {fill:#5169AC}
    .fil1 {fill:#FDFDFE}
   ]]>
  </style>
 </defs>
 <g id="Capa_x0020_1">
  <metadata id="CorelCorpID_0Corel-Layer"/>
  <g id="Fantasma">
   <path class="fil0" d="M829.52 814.45c-60.03,32.15 -214.64,41.28 -290.64,41.22 -326.88,-0.27 -432.61,-365.24 -253.91,-551.84 118.21,-123.43 335.35,-119.56 464.48,1.25 129.87,121.51 124.83,334.73 1.68,453.76 24.4,32.28 38.76,35 78.39,55.61zm-829.52 -316.12c0,182.22 23.45,290.56 156.57,423.32 211.69,211.13 552.96,211.13 764.66,0 211.69,-211.14 211.69,-551.51 0,-762.65 -212.77,-212.21 -537.61,-211.43 -765.73,-1.07 -70.04,64.58 -155.5,210.08 -155.5,340.4z"/>
   <path class="fil1" d="M576.68 498.33c29.81,-12.16 39.99,5.93 71.95,-25.21 20.59,-20.06 19.02,-42.77 32.73,-64.4 126.23,110.63 -55.7,213.57 -104.68,89.61zm-115.3 0c-34.44,141.51 -239.47,-8.08 -107.73,-85.94 9.66,9.85 2.85,0.96 11.18,16.32 53.39,98.27 -0.37,33.58 96.55,69.62zm368.14 316.12c-39.63,-20.61 -53.99,-23.33 -78.39,-55.61 123.15,-119.03 128.19,-332.25 -1.68,-453.76 -129.13,-120.81 -346.27,-124.68 -464.48,-1.25 -178.7,186.6 -72.97,551.57 253.91,551.84 76,0.06 230.61,-9.07 290.64,-41.22z"/>
   <path class="fil0" d="M461.38 498.33c-96.92,-36.04 -43.16,28.65 -96.55,-69.62 -8.33,-15.36 -1.52,-6.47 -11.18,-16.32 -131.74,77.86 73.29,227.45 107.73,85.94z"/>
   <path class="fil0" d="M576.68 498.33c48.98,123.96 230.91,21.02 104.68,-89.61 -13.71,21.63 -12.14,44.34 -32.73,64.4 -31.96,31.14 -42.14,13.05 -71.95,25.21z"/>
  </g>
 </g>
</svg>
