<?xml version="1.0" encoding="UTF-8"?>
<!DOCTYPE svg PUBLIC "-//W3C//DTD SVG 1.1//EN" "http://www.w3.org/Graphics/SVG/1.1/DTD/svg11.dtd">
<!-- Creator: CorelDRAW -->
<svg xmlns="http://www.w3.org/2000/svg" xml:space="preserve" width="1080px" height="1080px" version="1.1" style="shape-rendering:geometricPrecision; text-rendering:geometricPrecision; image-rendering:optimizeQuality; fill-rule:evenodd; clip-rule:evenodd"
viewBox="0 0 1080 1080"
 xmlns:xlink="http://www.w3.org/1999/xlink"
 xmlns:xodm="http://www.corel.com/coreldraw/odm/2003">
 <defs>
  <style type="text/css">
   <![CDATA[
    .fil0 {fill:#63BB5B}
    .fil1 {fill:#FDFDFE}
   ]]>
  </style>
 </defs>
 <g id="Capa_x0020_1">
  <metadata id="CorelCorpID_0Corel-Layer"/>
  <g id="Planta">
   <path class="fil0" d="M288.82 763.86c-115.39,-156.9 -70.94,-346.96 62.71,-435.92 78.36,-52.17 387.78,-132.07 491.18,-107.29 34.2,148.26 10.77,402.29 -56.14,524.22 -31.44,57.29 -90.1,105.27 -168.74,126.01 -111.31,29.36 -153.75,-0.79 -242.74,-26.14 56.72,-153.02 207.58,-70.5 333.68,-134.96 -29.51,-4.88 -67.69,-7.43 -102.47,-8.66l-82.32 -3.86c-57.62,-13.31 33.37,-108.63 79.17,-117.96 61.21,-12.48 123.91,-17.49 177.7,-40.95 -38.43,-20.43 -106.16,-15.2 -151.54,-19.69 13.77,-61.9 116.25,-148.82 124.66,-200.07 -11.82,16.35 -63.82,51.96 -85.72,73.36 -30.17,29.48 -47.28,68.78 -91.23,78.31l-39.83 -146.43c-24.2,46.3 -13.36,131.84 -19.69,189.29 -4.29,38.85 -70.16,99.79 -96.49,107.11 -24.9,-32.02 -26.96,-154.06 -47.22,-202.92 -43.21,169.26 49.14,248.87 -84.97,346.55zm-288.82 -265.82c0,182.31 23.45,290.7 156.57,423.53 211.69,211.24 552.96,211.24 764.66,0 211.69,-211.24 211.69,-551.79 0,-763.03 -162.79,-162.44 -418.38,-204.19 -618.3,-106.02 -157.37,77.27 -302.93,256.18 -302.93,445.52z"/>
   <path class="fil1" d="M288.82 763.86c134.11,-97.68 41.76,-177.29 84.97,-346.55 20.26,48.86 22.32,170.9 47.22,202.92 26.33,-7.32 92.2,-68.26 96.49,-107.11 6.33,-57.45 -4.51,-142.99 19.69,-189.29l39.83 146.43c43.95,-9.53 61.06,-48.83 91.23,-78.31 21.9,-21.4 73.9,-57.01 85.72,-73.36 -8.41,51.25 -110.89,138.17 -124.66,200.07 45.38,4.49 113.11,-0.74 151.54,19.69 -53.79,23.46 -116.49,28.47 -177.7,40.95 -45.8,9.33 -136.79,104.65 -79.17,117.96l82.32 3.86c34.78,1.23 72.96,3.78 102.47,8.66 -126.1,64.46 -276.96,-18.06 -333.68,134.96 88.99,25.35 131.43,55.5 242.74,26.14 78.64,-20.74 137.3,-68.72 168.74,-126.01 66.91,-121.93 90.34,-375.96 56.14,-524.22 -103.4,-24.78 -412.82,55.12 -491.18,107.29 -133.65,88.96 -178.1,279.02 -62.71,435.92z"/>
  </g>
 </g>
</svg>
