<?xml version="1.0" encoding="UTF-8"?>
<!DOCTYPE svg PUBLIC "-//W3C//DTD SVG 1.1//EN" "http://www.w3.org/Graphics/SVG/1.1/DTD/svg11.dtd">
<!-- Creator: CorelDRAW -->
<svg xmlns="http://www.w3.org/2000/svg" xml:space="preserve" width="1080px" height="1080px" version="1.1" style="shape-rendering:geometricPrecision; text-rendering:geometricPrecision; image-rendering:optimizeQuality; fill-rule:evenodd; clip-rule:evenodd"
viewBox="0 0 1080 1080"
 xmlns:xlink="http://www.w3.org/1999/xlink"
 xmlns:xodm="http://www.corel.com/coreldraw/odm/2003">
 <defs>
  <style type="text/css">
   <![CDATA[
    .fil0 {fill:#D97746}
    .fil1 {fill:#FDFDFE}
   ]]>
  </style>
 </defs>
 <g id="Capa_x0020_1">
  <metadata id="CorelCorpID_0Corel-Layer"/>
  <g id="Tierra">
   <path class="fil0" d="M493.37 271.5l258.02 0.46 166.01 469.6 -33.27 0.4 -522.06 0.1 -34.97 -1.21 166.27 -469.35zm-227.19 92.31l139.12 1.12 -132.58 377.1 -139.11 -1.11 132.57 -377.11zm-266.18 134.52c0,182.22 23.45,290.55 156.56,423.32 211.7,211.13 552.97,211.13 764.67,0 211.69,-211.14 211.69,-551.51 0,-762.65 -212.77,-212.21 -537.61,-211.43 -765.73,-1.07 -70.04,64.58 -155.5,210.08 -155.5,340.4z"/>
   <polygon class="fil1" points="327.1,740.85 362.07,742.06 884.13,741.96 917.4,741.56 751.39,271.96 493.37,271.5 "/>
   <polygon class="fil1" points="133.61,740.92 272.72,742.03 405.3,364.93 266.18,363.81 "/>
  </g>
 </g>
</svg>
