<?xml version="1.0" encoding="UTF-8"?>
<!DOCTYPE svg PUBLIC "-//W3C//DTD SVG 1.1//EN" "http://www.w3.org/Graphics/SVG/1.1/DTD/svg11.dtd">
<!-- Creator: CorelDRAW -->
<svg xmlns="http://www.w3.org/2000/svg" xml:space="preserve" width="1080px" height="1080px" version="1.1" style="shape-rendering:geometricPrecision; text-rendering:geometricPrecision; image-rendering:optimizeQuality; fill-rule:evenodd; clip-rule:evenodd"
viewBox="0 0 1080 1080"
 xmlns:xlink="http://www.w3.org/1999/xlink"
 xmlns:xodm="http://www.corel.com/coreldraw/odm/2003">
 <defs>
  <style type="text/css">
   <![CDATA[
    .fil0 {fill:#74CEC0}
    .fil1 {fill:#FDFDFE}
   ]]>
  </style>
 </defs>
 <g id="Capa_x0020_1">
  <metadata id="CorelCorpID_0Corel-Layer"/>
  <g id="Hielo">
   <path class="fil0" d="M556.07 567.23c32.84,16.38 64.88,36.56 94.85,54.11 19.55,11.45 30.65,18.15 48.03,27.75 47.8,26.38 43.5,10.25 42.18,117.82l-2.83 115.14c-34.99,-10.94 -146.22,-79.05 -178.49,-101.85l-3.74 -212.97zm-215.74 316.69l-1.67 -32.98 0.1 -142.84 1.2 -30.07 184.85 -109.5 -0.98 218.02 -183.5 97.37zm-194.97 -343.86c14.78,-15.9 155.88,-98.54 175.02,-98.52 19.21,0.01 161.42,84.24 184.43,97.82 -12.4,13.89 -159.42,101.07 -179.73,103.87 -17.8,2.47 -161.74,-84.35 -179.72,-103.17zm787.08 0c-14.78,15.89 -156.11,98.52 -175.02,98.51 -19.21,-0.01 -161.43,-84.24 -184.44,-97.82 12.41,-13.9 159.43,-101.07 179.73,-103.88 17.8,-2.46 161.75,84.36 179.73,103.19zm-193.82 -342.01l0.41 31.12 0.32 142.85 -1.78 30.3 -185.33 106.41 2.33 -213.13 184.05 -97.55zm-399.3 0c35.17,10.95 146.39,79.06 179.45,101.84l1.33 213.01c-55.1,-28.95 -131.5,-84.63 -184.11,-103.96l3.33 -210.89zm-339.32 299.99c0,182.31 23.45,290.7 156.57,423.53 211.69,211.24 552.96,211.24 764.66,0 211.69,-211.25 211.69,-551.79 0,-763.03 -162.79,-162.44 -418.39,-204.19 -618.3,-106.02 -157.37,77.28 -302.93,256.18 -302.93,445.52z"/>
   <path class="fil1" d="M145.36 540.06c17.98,18.82 161.92,105.64 179.72,103.17 20.31,-2.8 167.33,-89.98 179.73,-103.87 -23.01,-13.58 -165.22,-97.81 -184.43,-97.82 -19.14,-0.02 -160.24,82.62 -175.02,98.52z"/>
   <path class="fil1" d="M932.44 540.06c-17.98,-18.83 -161.93,-105.65 -179.73,-103.19 -20.3,2.81 -167.32,89.98 -179.73,103.88 23.01,13.58 165.23,97.81 184.44,97.82 18.91,0.01 160.24,-82.62 175.02,-98.51z"/>
   <polygon class="fil1" points="523.83,786.55 524.81,568.53 339.96,678.03 338.76,708.1 338.66,850.94 340.33,883.92 "/>
   <path class="fil1" d="M559.81 780.2c32.27,22.8 143.5,90.91 178.49,101.85l2.83 -115.14c1.32,-107.57 5.62,-91.44 -42.18,-117.82 -17.38,-9.6 -28.48,-16.3 -48.03,-27.75 -29.97,-17.55 -62.01,-37.73 -94.85,-54.11l3.74 212.97z"/>
   <path class="fil1" d="M335.99 408.94c52.61,19.33 129.01,75.01 184.11,103.96l-1.33 -213.01c-33.06,-22.78 -144.28,-90.89 -179.45,-101.84l-3.33 210.89z"/>
   <polygon class="fil1" points="554.57,295.6 552.24,508.73 737.57,402.32 739.35,372.02 739.03,229.17 738.62,198.05 "/>
  </g>
 </g>
</svg>
