<?xml version="1.0" encoding="UTF-8"?>
<!DOCTYPE svg PUBLIC "-//W3C//DTD SVG 1.1//EN" "http://www.w3.org/Graphics/SVG/1.1/DTD/svg11.dtd">
<!-- Creator: CorelDRAW -->
<svg xmlns="http://www.w3.org/2000/svg" xml:space="preserve" width="1080px" height="1080px" version="1.1" style="shape-rendering:geometricPrecision; text-rendering:geometricPrecision; image-rendering:optimizeQuality; fill-rule:evenodd; clip-rule:evenodd"
viewBox="0 0 1080 1080"
 xmlns:xlink="http://www.w3.org/1999/xlink"
 xmlns:xodm="http://www.corel.com/coreldraw/odm/2003">
 <defs>
  <style type="text/css">
   <![CDATA[
    .fil0 {fill:#9099A1}
    .fil1 {fill:#FDFDFE}
   ]]>
  </style>
 </defs>
 <g id="Capa_x0020_1">
  <metadata id="CorelCorpID_0Corel-Layer"/>
  <g id="Normal">
   <path class="fil0" d="M479.23 208.49c200.68,-37.28 363.07,105.95 392.07,268.63 36.38,204.06 -104.5,365.37 -269.33,394.63 -444.83,78.96 -562.45,-581.59 -122.74,-663.26zm-479.23 289.55c0,182.31 23.45,290.7 156.56,423.53 211.7,211.24 552.98,211.24 764.67,0 211.69,-211.24 211.69,-551.78 0,-763.03 -162.79,-162.44 -418.38,-204.19 -618.3,-106.02 -157.37,77.27 -302.93,256.18 -302.93,445.52z"/>
   <path class="fil1" d="M500.3 345.39c116.28,-26.28 213.49,57.56 233.56,150.37 26.27,121.46 -56.41,218.87 -150.66,239.26 -256.33,55.45 -350.66,-329.12 -82.9,-389.63zm-20.94 -136.9c-438.77,81.67 -321.41,742.22 122.48,663.26 164.48,-29.26 305.05,-190.57 268.75,-394.63 -28.93,-162.68 -190.98,-305.91 -391.23,-268.63z"/>
   <path class="fil0" d="M500.3 345.39c-267.76,60.51 -173.43,445.08 82.9,389.63 94.25,-20.39 176.93,-117.8 150.66,-239.26 -20.07,-92.81 -117.28,-176.65 -233.56,-150.37z"/>
  </g>
 </g>
</svg>
