<?xml version="1.0" encoding="UTF-8"?>
<!DOCTYPE svg PUBLIC "-//W3C//DTD SVG 1.1//EN" "http://www.w3.org/Graphics/SVG/1.1/DTD/svg11.dtd">
<!-- Creator: CorelDRAW -->
<svg xmlns="http://www.w3.org/2000/svg" xml:space="preserve" width="1080px" height="1080px" version="1.1" style="shape-rendering:geometricPrecision; text-rendering:geometricPrecision; image-rendering:optimizeQuality; fill-rule:evenodd; clip-rule:evenodd"
viewBox="0 0 1080 1080"
 xmlns:xlink="http://www.w3.org/1999/xlink"
 xmlns:xodm="http://www.corel.com/coreldraw/odm/2003">
 <defs>
  <style type="text/css">
   <![CDATA[
    .fil0 {fill:#AB6AC8}
    .fil1 {fill:#FDFDFE}
   ]]>
  </style>
 </defs>
 <g id="Capa_x0020_1">
  <metadata id="CorelCorpID_0Corel-Layer"/>
  <g id="Veneno">
   <path class="fil0" d="M311.39 708.46c-41.85,-42.93 -76.9,-68.59 -98.99,-136.82 -21.34,-65.93 -9.75,-140.94 20.57,-194.21 154.18,-270.92 642.87,-180.71 642.87,120.52 0,111.53 -55.83,155.53 -109.44,210.51 9.05,57.84 12.27,120.57 -29.44,147.68 -49.91,32.43 -83.46,2.4 -115.48,-31.21 -1.19,-1.25 -4.26,-1.89 -5.14,-5.25 -0.89,-3.43 -3.43,-3.63 -5.24,-5.34 -23.98,75.36 -120.43,75.36 -144.4,0l-10.38 10.59c-92.74,96.71 -167.6,28.45 -144.93,-116.47zm-311.39 -210.51c0,182.7 23.45,291.32 156.57,424.44 211.69,211.69 552.97,211.69 764.66,0 211.69,-211.69 211.69,-552.97 0,-764.67 -162.79,-162.79 -418.39,-204.62 -618.31,-106.25 -157.37,77.44 -302.92,256.74 -302.92,446.48z"/>
   <path class="fil1" d="M476.11 337.5c117.92,-30.61 233.01,24.85 273.3,101.39 59.37,112.81 -53.97,197.35 -141.54,219.86 -270.42,69.5 -429.5,-243.94 -131.76,-321.25zm-164.23 370.6c-22.62,144.61 52.07,212.73 144.62,116.22l10.36 -10.57c23.91,75.21 120.16,75.21 144.08,0 1.81,1.71 4.35,1.91 5.24,5.34 0.87,3.35 3.94,3.99 5.12,5.23 31.95,33.53 65.44,63.51 115.24,31.14 41.62,-27.04 38.4,-89.64 29.38,-147.36 53.49,-54.86 109.2,-98.77 109.2,-210.06 0,-300.59 -487.65,-390.6 -641.5,-120.26 -30.25,53.16 -41.82,128 -20.52,193.79 22.04,68.08 57.02,93.69 98.78,136.53z"/>
   <path class="fil0" d="M476.11 337.5c-297.74,77.31 -138.66,390.75 131.76,321.25 87.57,-22.51 200.91,-107.05 141.54,-219.86 -40.29,-76.54 -155.38,-132 -273.3,-101.39z"/>
  </g>
 </g>
</svg>
