<?xml version="1.0" encoding="UTF-8"?>
<!DOCTYPE svg PUBLIC "-//W3C//DTD SVG 1.1//EN" "http://www.w3.org/Graphics/SVG/1.1/DTD/svg11.dtd">
<!-- Creator: CorelDRAW -->
<svg xmlns="http://www.w3.org/2000/svg" xml:space="preserve" width="1080px" height="1080px" version="1.1" style="shape-rendering:geometricPrecision; text-rendering:geometricPrecision; image-rendering:optimizeQuality; fill-rule:evenodd; clip-rule:evenodd"
viewBox="0 0 1080 1080"
 xmlns:xlink="http://www.w3.org/1999/xlink"
 xmlns:xodm="http://www.corel.com/coreldraw/odm/2003">
 <defs>
  <style type="text/css">
   <![CDATA[
    .fil0 {fill:#F97076}
    .fil1 {fill:#FEF5F5}
   ]]>
  </style>
 </defs>
 <g id="Capa_x0020_1">
  <metadata id="CorelCorpID_0Corel-Layer"/>
  <g id="Psíquico">
   <path class="fil0" d="M705.27 804.64c-129.16,115.03 -549.07,4.41 -461.08,-340.79 97.48,-382.47 664.33,-245.47 594.42,98.3 -45.01,221.3 -321.12,237.33 -406.64,101.52 -76.1,-120.86 10.04,-279.4 155.74,-248.48 55.41,11.75 102.68,64.54 81.59,137.23 -16.79,57.86 -107.7,85.15 -128.37,12.26 24.71,-12.76 29.35,3.66 66.29,-6.86 39.66,-108.37 -98.26,-109.7 -121.71,-28.52 -21.85,75.69 46.33,138.95 119.36,134.55 158.79,-9.58 170.58,-259.2 -2.48,-304.67 -170.33,-44.76 -301.28,103.56 -259.05,267.09 49.81,192.96 229.82,178.37 361.93,178.37zm-705.27 -306.6c0,182.31 23.45,290.7 156.57,423.53 211.69,211.24 552.96,211.24 764.66,0 211.69,-211.25 211.69,-551.79 0,-763.03 -162.79,-162.44 -418.39,-204.19 -618.31,-106.02 -57.89,28.43 -100.71,61.85 -147.42,104.95 -70.04,64.62 -155.5,210.18 -155.5,340.57z"/>
   <path class="fil1" d="M705.27 804.64c-132.11,0 -312.12,14.59 -361.93,-178.37 -42.23,-163.53 88.72,-311.85 259.05,-267.09 173.06,45.47 161.27,295.09 2.48,304.67 -73.03,4.4 -141.21,-58.86 -119.36,-134.55 23.45,-81.18 161.37,-79.85 121.71,28.52 -36.94,10.52 -41.58,-5.9 -66.29,6.86 20.67,72.89 111.58,45.6 128.37,-12.26 21.09,-72.69 -26.18,-125.48 -81.59,-137.23 -145.7,-30.92 -231.84,127.62 -155.74,248.48 85.52,135.81 361.63,119.78 406.64,-101.52 69.91,-343.77 -496.94,-480.77 -594.42,-98.3 -87.99,345.2 331.92,455.82 461.08,340.79z"/>
  </g>
 </g>
</svg>
