<?xml version="1.0" encoding="UTF-8"?>
<!DOCTYPE svg PUBLIC "-//W3C//DTD SVG 1.1//EN" "http://www.w3.org/Graphics/SVG/1.1/DTD/svg11.dtd">
<!-- Creator: CorelDRAW -->
<svg xmlns="http://www.w3.org/2000/svg" xml:space="preserve" width="1080px" height="1080px" version="1.1" style="shape-rendering:geometricPrecision; text-rendering:geometricPrecision; image-rendering:optimizeQuality; fill-rule:evenodd; clip-rule:evenodd"
viewBox="0 0 1080 1080"
 xmlns:xlink="http://www.w3.org/1999/xlink"
 xmlns:xodm="http://www.corel.com/coreldraw/odm/2003">
 <defs>
  <style type="text/css">
   <![CDATA[
    .fil0 {fill:#C7B78B}
    .fil1 {fill:#FDFDFE}
   ]]>
  </style>
 </defs>
 <g id="Capa_x0020_1">
  <metadata id="CorelCorpID_0Corel-Layer"/>
  <g id="Roca">
   <path class="fil0" d="M399.18 780.8c23.37,-35.51 233.54,-169.41 257.6,-179.48 17.69,16.04 74.75,96.01 82.81,115.18 -16.87,26.53 -99.65,132.2 -130.11,130.3 -33.94,-2.11 -161.07,-56.05 -210.3,-66zm375.49 -101.47c-16.31,-15.56 -40.57,-55.53 -54.45,-76.91 -35.89,-55.28 -8.45,-76.34 35.76,-198.66l43.95 -104.47 13.48 25.44c2.86,6.73 6.5,18.39 8.75,25.62 59.29,190.7 82.74,175.39 17.66,254.68 -18.65,22.72 -45.79,62.78 -65.15,74.3zm-566.43 39.99c0,-129.22 -27.46,-158.35 20.83,-211.17l174.96 -186.65c33.45,-30.91 29.82,-34.64 92.4,-34.04 81.3,0.78 163.02,-0.85 244.2,0.88 -15.31,61.9 -45.99,131.78 -66.66,193.2 -30.71,91.23 -56.23,89.82 -124.8,136 -56.15,37.82 -101.81,67.45 -156.71,104.42 -27.18,18.3 -44.1,39.74 -81.57,29.84 -35.1,-9.28 -65.83,-25.05 -102.65,-32.48zm-208.24 -221.28c0,182.31 23.45,290.7 156.57,423.53 211.69,211.24 552.96,211.24 764.66,0 211.69,-211.24 211.69,-551.79 0,-763.03 -162.79,-162.44 -418.38,-204.19 -618.3,-106.02 -157.37,77.27 -302.93,256.18 -302.93,445.52z"/>
   <path class="fil1" d="M208.24 719.32c36.82,7.43 67.55,23.2 102.65,32.48 37.47,9.9 54.39,-11.54 81.57,-29.84 54.9,-36.97 100.56,-66.6 156.71,-104.42 68.57,-46.18 94.09,-44.77 124.8,-136 20.67,-61.42 51.35,-131.3 66.66,-193.2 -81.18,-1.73 -162.9,-0.1 -244.2,-0.88 -62.58,-0.6 -58.95,3.13 -92.4,34.04l-174.96 186.65c-48.29,52.82 -20.83,81.95 -20.83,211.17z"/>
   <path class="fil1" d="M399.18 780.8c49.23,9.95 176.36,63.89 210.3,66 30.46,1.9 113.24,-103.77 130.11,-130.3 -8.06,-19.17 -65.12,-99.14 -82.81,-115.18 -24.06,10.07 -234.23,143.97 -257.6,179.48z"/>
   <path class="fil1" d="M774.67 679.33c19.36,-11.52 46.5,-51.58 65.15,-74.3 65.08,-79.29 41.63,-63.98 -17.66,-254.68 -2.25,-7.23 -5.89,-18.89 -8.75,-25.62l-13.48 -25.44 -43.95 104.47c-44.21,122.32 -71.65,143.38 -35.76,198.66 13.88,21.38 38.14,61.35 54.45,76.91z"/>
  </g>
 </g>
</svg>
