<?xml version="1.0" encoding="UTF-8"?>
<!DOCTYPE svg PUBLIC "-//W3C//DTD SVG 1.1//EN" "http://www.w3.org/Graphics/SVG/1.1/DTD/svg11.dtd">
<!-- Creator: CorelDRAW -->
<svg xmlns="http://www.w3.org/2000/svg" xml:space="preserve" width="1080px" height="1080px" version="1.1" style="shape-rendering:geometricPrecision; text-rendering:geometricPrecision; image-rendering:optimizeQuality; fill-rule:evenodd; clip-rule:evenodd"
viewBox="0 0 1080 1080"
 xmlns:xlink="http://www.w3.org/1999/xlink"
 xmlns:xodm="http://www.corel.com/coreldraw/odm/2003">
 <defs>
  <style type="text/css">
   <![CDATA[
    .fil0 {fill:#5A8EA1}
    .fil1 {fill:#FDFDFE}
   ]]>
  </style>
 </defs>
 <g id="Capa_x0020_1">
  <metadata id="CorelCorpID_0Corel-Layer"/>
  <g id="Acero">
   <path class="fil0" d="M370.49 857.46c-26.44,0 -46.08,-52.74 -58.67,-73.85 -16.17,-27.12 -29.89,-50.47 -46.57,-79.46 -111.79,-194.16 -114.62,-131.99 3.08,-333 22.09,-37.72 76.02,-147.97 102.16,-147.97 388.56,0 333.36,-30.34 395.49,73.86l138.3 243.28 -141.49 248.49c-12.71,21.47 -29.16,68.65 -57.59,68.65l-334.71 0zm-370.49 -359.13c0,182.22 23.45,290.56 156.57,423.32 211.69,211.13 552.96,211.13 764.66,0 211.69,-211.14 211.69,-551.51 0,-762.65 -212.76,-212.21 -537.61,-211.43 -765.73,-1.07 -70.04,64.58 -155.5,210.08 -155.5,340.4z"/>
   <path class="fil1" d="M372.73 548.72c0,-232.37 332.35,-232.37 332.35,0 0,206.34 -332.35,206.38 -332.35,0zm-2.24 308.74l334.71 0c28.43,0 44.88,-47.18 57.59,-68.65l141.49 -248.49 -138.3 -243.28c-62.13,-104.2 -6.93,-73.86 -395.49,-73.86 -26.14,0 -80.07,110.25 -102.16,147.97 -117.7,201.01 -114.87,138.84 -3.08,333 16.68,28.99 30.4,52.34 46.57,79.46 12.59,21.11 32.23,73.85 58.67,73.85z"/>
   <path class="fil0" d="M372.73 548.72c0,206.38 332.35,206.34 332.35,0 0,-232.37 -332.35,-232.37 -332.35,0z"/>
  </g>
 </g>
</svg>
