<?xml version="1.0" encoding="UTF-8"?>
<!DOCTYPE svg PUBLIC "-//W3C//DTD SVG 1.1//EN" "http://www.w3.org/Graphics/SVG/1.1/DTD/svg11.dtd">
<!-- Creator: CorelDRAW -->
<svg xmlns="http://www.w3.org/2000/svg" xml:space="preserve" width="1080px" height="1080px" version="1.1" style="shape-rendering:geometricPrecision; text-rendering:geometricPrecision; image-rendering:optimizeQuality; fill-rule:evenodd; clip-rule:evenodd"
viewBox="0 0 1080 1080"
 xmlns:xlink="http://www.w3.org/1999/xlink"
 xmlns:xodm="http://www.corel.com/coreldraw/odm/2003">
 <defs>
  <style type="text/css">
   <![CDATA[
    .fil0 {fill:#4D90D5}
    .fil1 {fill:#FDFDFE}
   ]]>
  </style>
 </defs>
 <g id="Capa_x0020_1">
  <metadata id="CorelCorpID_0Corel-Layer"/>
  <g id="Agua">
   <path class="fil0" d="M304.57 699.89c-32.29,-139.42 94.22,-327.72 153.77,-407.77 66.89,-89.9 84.69,-97.62 146.79,-19.43 484.94,610.6 -219.39,777.62 -300.56,427.2zm-304.57 -201.56c0,182.22 23.45,290.56 156.56,423.32 211.7,211.13 552.97,211.13 764.67,0 211.69,-211.14 211.69,-551.51 0,-762.65 -212.77,-212.21 -537.61,-211.43 -765.73,-1.07 -70.04,64.58 -155.5,210.08 -155.5,340.4z"/>
   <path class="fil1" d="M670.83 676.44c-8.49,95.6 -107.51,168.36 -211.11,111.24 -103.74,-57.18 -78.24,-198.2 -15.18,-230.39 -7.14,76.03 14.02,128.03 67.13,152.83 78.17,36.5 119.75,-8.47 159.16,-33.68zm-366.26 23.45c81.17,350.42 785.5,183.4 300.56,-427.2 -62.1,-78.19 -79.9,-70.47 -146.79,19.43 -59.55,80.05 -186.06,268.35 -153.77,407.77z"/>
   <path class="fil0" d="M670.83 676.44c-39.41,25.21 -80.99,70.18 -159.16,33.68 -53.11,-24.8 -74.27,-76.8 -67.13,-152.83 -63.06,32.19 -88.56,173.21 15.18,230.39 103.6,57.12 202.62,-15.64 211.11,-111.24z"/>
  </g>
 </g>
</svg>
